<?xml version="1.0" encoding="UTF-8"?>
<svg xmlns="http://www.w3.org/2000/svg" xmlns:xlink="http://www.w3.org/1999/xlink" viewBox="0 0 25 25" width="25px" height="25px">
<g id="surface11970664">
<path style=" stroke:none;fill-rule:nonzero;fill:rgb(20.392157%,59.607846%,85.882354%);fill-opacity:1;" d="M 12.5 1 C 6.15625 1 1 6.15625 1 12.5 C 1 18.84375 6.15625 24 12.5 24 C 18.84375 24 24 18.84375 24 12.5 C 24 6.15625 18.84375 1 12.5 1 Z M 12.5 2 C 18.304688 2 23 6.695312 23 12.5 C 23 18.304688 18.304688 23 12.5 23 C 6.695312 23 2 18.304688 2 12.5 C 2 6.695312 6.695312 2 12.5 2 Z M 7.5 9 L 5.484375 9 C 5.484375 9 5.367188 8.996094 5.226562 9.011719 C 5.089844 9.03125 4.882812 9.039062 4.671875 9.277344 L 4.671875 9.28125 L 4.667969 9.28125 C 4.480469 9.496094 4.488281 9.746094 4.511719 9.882812 C 4.535156 10.019531 4.589844 10.121094 4.589844 10.125 C 4.609375 10.171875 6.074219 13.761719 7.917969 15.691406 C 9.222656 17.050781 10.617188 17.5 11.855469 17.5 L 12.5 17.5 C 12.710938 17.5 12.902344 17.492188 13.109375 17.382812 C 13.320312 17.273438 13.5 16.972656 13.5 16.742188 C 13.5 16.492188 13.507812 16.246094 13.539062 16.113281 C 13.566406 15.984375 13.554688 16.015625 13.566406 16.015625 C 13.582031 16.019531 13.601562 16.023438 13.644531 16.042969 C 13.734375 16.082031 13.871094 16.171875 14.023438 16.292969 C 14.328125 16.527344 14.691406 16.871094 15.09375 17.136719 C 15.675781 17.523438 16.304688 17.5 16.304688 17.5 L 18.382812 17.5 L 18.40625 17.496094 C 18.40625 17.496094 18.726562 17.492188 19.054688 17.289062 C 19.21875 17.191406 19.414062 17.003906 19.476562 16.730469 C 19.542969 16.453125 19.460938 16.164062 19.296875 15.910156 C 19.238281 15.816406 18.957031 15.402344 17.816406 14.394531 C 17.523438 14.132812 17.324219 13.949219 17.246094 13.851562 C 17.21875 13.816406 17.214844 13.820312 17.207031 13.816406 C 17.214844 13.800781 17.28125 13.660156 17.457031 13.433594 C 17.640625 13.195312 17.917969 12.863281 18.277344 12.40625 C 18.734375 11.828125 19.050781 11.269531 19.253906 10.796875 C 19.355469 10.5625 19.425781 10.347656 19.46875 10.152344 C 19.511719 9.960938 19.546875 9.796875 19.480469 9.566406 C 19.433594 9.398438 19.308594 9.242188 19.179688 9.164062 C 19.054688 9.082031 18.9375 9.050781 18.832031 9.03125 C 18.625 8.992188 18.4375 9 18.265625 9 C 17.902344 9 16.292969 9.011719 16.160156 9.011719 C 16.007812 9.011719 15.757812 9.078125 15.640625 9.144531 C 15.355469 9.308594 15.265625 9.53125 15.265625 9.53125 L 15.238281 9.578125 L 15.222656 9.632812 C 15.222656 9.632812 14.859375 10.816406 14.480469 11.429688 C 14.039062 12.148438 13.707031 12.433594 13.5625 12.515625 C 13.546875 12.523438 13.554688 12.519531 13.542969 12.523438 C 13.53125 12.492188 13.519531 12.445312 13.507812 12.363281 C 13.488281 12.171875 13.5 11.902344 13.5 11.644531 C 13.5 10.925781 13.554688 10.480469 13.492188 10.058594 C 13.464844 9.84375 13.386719 9.609375 13.214844 9.429688 C 13.042969 9.246094 12.816406 9.15625 12.59375 9.105469 C 12.359375 9.050781 12.109375 9.003906 11.503906 9 C 10.734375 8.992188 10.234375 9.015625 9.789062 9.214844 L 9.785156 9.21875 L 9.78125 9.21875 C 9.605469 9.300781 9.464844 9.398438 9.34375 9.523438 C 9.285156 9.585938 9.210938 9.632812 9.160156 9.835938 C 9.136719 9.933594 9.132812 10.125 9.246094 10.28125 C 9.359375 10.433594 9.519531 10.480469 9.613281 10.492188 C 9.597656 10.488281 9.6875 10.511719 9.757812 10.546875 C 9.828125 10.578125 9.890625 10.628906 9.90625 10.652344 C 9.898438 10.644531 9.96875 10.8125 9.984375 10.964844 C 10.003906 11.117188 10 11.242188 10 11.242188 L 10 11.300781 C 10 11.300781 10.03125 11.640625 10.015625 11.992188 C 10.007812 12.167969 9.988281 12.34375 9.957031 12.453125 C 9.957031 12.457031 9.953125 12.457031 9.953125 12.460938 C 9.828125 12.375 9.539062 12.070312 9.140625 11.414062 C 8.773438 10.804688 8.429688 9.710938 8.429688 9.710938 L 8.414062 9.664062 C 8.414062 9.664062 8.347656 9.421875 8.066406 9.222656 C 7.800781 9.035156 7.546875 9.007812 7.546875 9.007812 Z M 7.386719 10 C 7.414062 10.011719 7.472656 10.03125 7.484375 10.035156 L 7.472656 10 C 7.472656 10 7.488281 10.039062 7.488281 10.039062 L 7.492188 10.039062 C 7.464844 10.023438 7.488281 10.039062 7.488281 10.042969 C 7.503906 10.089844 7.808594 11.144531 8.285156 11.929688 C 8.71875 12.648438 9.042969 13.050781 9.390625 13.289062 C 9.742188 13.53125 10.210938 13.503906 10.449219 13.382812 C 10.769531 13.214844 10.859375 12.941406 10.921875 12.714844 C 10.984375 12.488281 11.003906 12.257812 11.015625 12.039062 C 11.035156 11.625 11.003906 11.28125 11 11.25 C 11 11.230469 11.003906 11.066406 10.976562 10.847656 C 10.953125 10.628906 10.90625 10.355469 10.710938 10.078125 C 10.929688 10.046875 11.050781 9.996094 11.496094 10 C 12.058594 10.003906 12.144531 10.027344 12.367188 10.078125 C 12.488281 10.109375 12.503906 10.132812 12.492188 10.117188 C 12.480469 10.105469 12.488281 10.097656 12.503906 10.195312 C 12.53125 10.390625 12.5 10.890625 12.5 11.644531 C 12.5 11.859375 12.480469 12.15625 12.515625 12.472656 C 12.550781 12.785156 12.648438 13.1875 13.027344 13.425781 C 13.246094 13.558594 13.660156 13.605469 14.046875 13.386719 C 14.4375 13.171875 14.839844 12.753906 15.332031 11.953125 C 15.820312 11.164062 16.109375 10.125 16.140625 10.015625 C 16.140625 10.015625 16.148438 10.011719 16.148438 10.011719 C 16.160156 10.011719 16.148438 10.011719 16.160156 10.011719 C 16.347656 10.011719 17.925781 10 18.265625 10 C 18.359375 10 18.398438 10.003906 18.46875 10.007812 C 18.441406 10.117188 18.402344 10.242188 18.332031 10.402344 C 18.171875 10.785156 17.894531 11.277344 17.488281 11.789062 C 17.140625 12.234375 16.871094 12.554688 16.664062 12.824219 C 16.457031 13.089844 16.296875 13.304688 16.226562 13.609375 C 16.160156 13.914062 16.289062 14.261719 16.464844 14.480469 C 16.644531 14.699219 16.863281 14.882812 17.152344 15.140625 C 18.253906 16.117188 18.433594 16.414062 18.453125 16.441406 C 18.472656 16.472656 18.457031 16.441406 18.464844 16.457031 C 18.402344 16.476562 18.328125 16.5 18.320312 16.5 L 16.296875 16.5 C 16.296875 16.5 15.921875 16.488281 15.648438 16.304688 L 15.644531 16.304688 C 15.351562 16.113281 15 15.785156 14.636719 15.5 C 14.457031 15.359375 14.269531 15.230469 14.054688 15.132812 C 13.839844 15.035156 13.570312 14.964844 13.28125 15.050781 C 12.867188 15.175781 12.640625 15.570312 12.566406 15.882812 C 12.511719 16.109375 12.519531 16.304688 12.519531 16.5 C 12.503906 16.5 12.515625 16.5 12.5 16.5 L 11.855469 16.5 C 10.839844 16.5 9.78125 16.191406 8.640625 14.996094 C 7.160156 13.449219 5.835938 10.457031 5.636719 10 Z M 16.105469 10.003906 C 16.097656 10.007812 16.125 10.007812 16.144531 10.007812 C 16.140625 10.011719 16.144531 10.007812 16.140625 10.011719 C 16.140625 10.003906 16.117188 10 16.105469 10.003906 Z M 16.105469 10.003906 "/>
</g>
</svg>
