<?xml version="1.0" encoding="UTF-8"?>
<svg xmlns="http://www.w3.org/2000/svg" xmlns:xlink="http://www.w3.org/1999/xlink" viewBox="0 0 30 30" width="30px" height="30px">
<g id="surface12021706">
<path style=" stroke:none;fill-rule:nonzero;fill:rgb(100%,100%,100%);fill-opacity:1;" d="M 3.398438 6.847656 C 1.996094 6.847656 0.929688 8.226562 1.316406 9.578125 C 2.320312 13.109375 3.8125 16.566406 6.039062 19.285156 C 8.265625 22.003906 11.273438 23.972656 15.125 24.363281 C 16.40625 24.496094 17.511719 23.449219 17.511719 22.183594 L 17.511719 19.65625 C 17.511719 19.496094 17.617188 19.382812 17.742188 19.382812 C 17.765625 19.378906 17.78125 19.378906 17.792969 19.378906 C 18.234375 19.378906 19.144531 19.933594 19.941406 20.792969 C 20.742188 21.65625 21.445312 22.722656 21.785156 23.3125 C 22.171875 23.980469 22.886719 24.382812 23.648438 24.382812 L 26.691406 24.382812 C 28.210938 24.382812 29.226562 22.671875 28.484375 21.34375 C 27.316406 19.257812 24.992188 17.195312 23.828125 16.167969 C 25.960938 13.828125 27.371094 11.277344 27.996094 9.589844 C 28.46875 8.3125 27.496094 6.875 26.121094 6.875 L 23.949219 6.875 C 23.003906 6.875 22.121094 7.335938 21.761719 8.070312 C 20.070312 11.539062 18.5625 12.8125 17.5 13.730469 L 17.5 9.023438 C 17.5 7.851562 16.527344 6.882812 15.355469 6.882812 L 11.550781 6.875 C 10.335938 6.875 9.585938 8.371094 10.3125 9.34375 L 11.046875 10.324219 L 11.046875 10.328125 C 11.171875 10.496094 11.238281 10.695312 11.238281 10.898438 L 11.238281 10.902344 L 11.253906 14.824219 C 9.742188 13.226562 8.09375 9.84375 7.597656 8.335938 L 7.597656 8.332031 C 7.308594 7.453125 6.476562 6.855469 5.554688 6.855469 Z M 3.398438 8.722656 L 5.550781 8.730469 C 5.679688 8.730469 5.777344 8.800781 5.816406 8.917969 C 6.433594 10.792969 8.054688 14.367188 10.105469 16.367188 C 10.640625 16.886719 11.421875 16.992188 12.03125 16.746094 C 12.636719 16.496094 13.132812 15.859375 13.132812 15.109375 L 13.113281 10.898438 C 13.113281 10.285156 12.914062 9.691406 12.546875 9.203125 L 12.546875 9.199219 L 12.210938 8.75 L 15.351562 8.757812 C 15.515625 8.757812 15.625 8.863281 15.625 9.023438 L 15.625 13.777344 C 15.625 15.296875 17.542969 16.171875 18.695312 15.179688 C 19.75 14.265625 21.621094 12.636719 23.449219 8.894531 C 23.488281 8.808594 23.453125 8.75 23.949219 8.75 L 26.125 8.75 C 26.25 8.75 26.285156 8.808594 26.238281 8.9375 C 25.707031 10.375 24.351562 12.878906 22.339844 15.046875 C 21.71875 15.714844 21.742188 16.816406 22.445312 17.4375 C 23.542969 18.410156 25.941406 20.640625 26.847656 22.257812 C 26.929688 22.40625 26.867188 22.507812 26.695312 22.507812 L 23.648438 22.507812 C 23.542969 22.507812 23.457031 22.457031 23.410156 22.375 C 23.003906 21.671875 22.261719 20.535156 21.316406 19.519531 C 20.375 18.503906 19.253906 17.503906 17.792969 17.503906 C 17.753906 17.503906 17.71875 17.503906 17.691406 17.507812 L 17.6875 17.507812 C 16.527344 17.539062 15.636719 18.527344 15.636719 19.65625 L 15.636719 22.183594 C 15.636719 22.378906 15.484375 22.515625 15.3125 22.5 C 11.988281 22.164062 9.480469 20.527344 7.488281 18.097656 C 5.5 15.667969 4.078125 12.433594 3.117188 9.066406 C 3.066406 8.878906 3.179688 8.722656 3.398438 8.722656 Z M 3.398438 8.722656 "/>
</g>
</svg>
